<svg xmlns="http://www.w3.org/2000/svg" viewBox="0 0 64 64" id="spotify">
  <path fill="#0e0f0f" fill-rule="evenodd" d="m60,12c0-4.42-3.58-8-8-8H12c-4.42,0-8,3.58-8,8v40c0,4.42,3.58,8,8,8h40c4.42,0,8-3.58,8-8V12h0Z"></path>
  <path fill="#28d161" fill-rule="evenodd" d="m32,12c-11.04,0-20,8.96-20,20s8.96,20,20,20,20-8.96,20-20-8.96-20-20-20Zm9.17,29.11c-.43.66-1.32.84-1.98.4-4.98-3.29-10.72-3.19-17.04-1.85-.77.16-1.53-.33-1.69-1.1-.16-.77.33-1.53,1.1-1.69,7.14-1.51,13.59-1.46,19.21,2.26.66.43.84,1.32.4,1.98Zm2.36-5.73c-.54.94-1.74,1.27-2.68.73-5.49-3.13-11.84-3.5-19.17-2.3-1.07.17-2.08-.55-2.25-1.62-.17-1.07.55-2.08,1.62-2.26,8.32-1.36,15.51-.78,21.75,2.77.94.54,1.27,1.74.74,2.68Zm.62-5.23c-6.87-3.97-15.85-5.02-24.02-2.53-1.13.35-2.33-.29-2.68-1.42-.34-1.13.29-2.33,1.42-2.67,9.32-2.84,19.58-1.61,27.41,2.92,1.02.59,1.38,1.9.78,2.93s-1.9,1.37-2.93.78Z"></path>
</svg>
